<svg version="1.1" xmlns="http://www.w3.org/2000/svg" viewBox="-797.117708157828 -1789.8620547240741 2919.3526939586895 2919.3512027632673"><desc>Created with Snap</desc><defs></defs><g><g transform="matrix(6.1079,0,0,6.1079,-559.0352,-1557.6303)">
<g id="gSkzrfm6d951">
	<polygon points="30.20602,218.99388 30.20602,219.85374 11.31601,200.96385 11.74606,200.53392 	" fill="#165a3f" style=""></polygon>
	<polygon points="47.89609,236.68382 47.89609,237.54393 39.20602,228.85374 39.20602,227.99388 	" fill="#165a3f" style=""></polygon>
	<polygon points="154.84604,343.63376 153.98593,343.63376 56.89609,246.54393 56.89609,245.68382 	" fill="#165a3f" style=""></polygon>
	<polygon points="172.53598,361.32394 171.67612,361.32394 162.98593,352.63376 163.84604,352.63376 	" fill="#165a3f" style=""></polygon>
	<g>
		<path fill="#165a3f" d="M369.78598,182.06383V30.74388H218.46591L199.99619,12.2739l-18.47021,18.46997H30.20602v151.32996
			l-18.45996,18.46008l18.45996,18.45996v151.33006h151.32996l18.46021,18.45996l18.46973-18.45996h151.32007V218.99388
			l18.46997-18.45996L369.78598,182.06383z M39.20602,361.32394V227.99388l8.69006,8.68994v115.94994h115.94995l8.68994,8.69019
			H39.20602z M154.84604,343.63376H56.89609v-97.94994L154.84604,343.63376z M56.89609,155.37376V57.43382h97.93994
			L56.89609,155.37376z M163.84604,48.43382H47.89609v115.93995l-8.69006,8.70007V39.74387h133.32996L163.84604,48.43382z
			 M360.78598,361.32394H227.46591l8.69019-8.69019h115.93994V236.68382l8.68994-8.68994V361.32394z M343.09604,245.68382v97.94994
			H245.1561L343.09604,245.68382z M245.1561,57.43382h97.93994v97.93995L245.1561,57.43382z M360.78598,173.06383l-8.68994-8.69006
			V48.43382H236.1561l-8.69019-8.68994h133.32007V173.06383z" style=""></path>
		<polygon points="172.53598,39.74387 163.84604,48.43382 172.52597,39.74387 		" fill="#165a3f" style=""></polygon>
	</g>
	<polygon points="219.31601,370.32394 199.99619,389.64377 180.67612,370.32394 181.53598,370.32394 199.99619,388.78391 
		218.46591,370.32394 	" fill="#165a3f" style=""></polygon>
	<polygon points="237.00595,352.63376 228.31601,361.32394 227.46591,361.32394 236.1561,352.63376 	" fill="#165a3f" style=""></polygon>
	<polygon points="343.09604,245.68382 343.09604,246.55394 246.00595,343.63376 245.1561,343.63376 	" fill="#165a3f" style=""></polygon>
	<polygon points="360.78598,227.99388 360.78598,228.864 352.09604,237.55394 352.09604,236.68382 	" fill="#165a3f" style=""></polygon>
	<polygon points="388.68613,200.96385 369.78598,219.864 369.78598,218.99388 388.25595,200.53392 	" fill="#165a3f" style=""></polygon>
</g>


<desc>Created with Snap</desc><defs></defs></g><g><g transform="matrix(1.024,0,0,-1.024,0,0)"><path d="M16 0L24 79L97 79L149 571L67 571L75 650L219 650L518 182L521 182L561 571L468 571L477 650L729 650L721 571L644 571L585 0L532 0L224 483L221 483L178 79L276 79L268 0L16 0ZM732 0L740 79L815 79L867 571L791 571L800 650L1068 650Q1175 650 1226 597Q1278 544 1278 464Q1278 353 1208 294Q1138 235 1035 235L920 235L903 79L1008 79L1000 0L732 0ZM928 313L1029 313Q1107 313 1145 353Q1184 393 1184 460Q1184 571 1052 571L955 571L928 313Z" fill="#00e6cf" style=""></path></g></g></g></svg>